<svg width="284" height="184" viewBox="0 0 284 184" fill="none" xmlns="http://www.w3.org/2000/svg">
<path fill-rule="evenodd" clip-rule="evenodd" d="M2 0H282C283.105 0 284 0.89543 284 2V184H0V2C0 0.89543 0.89543 0 2 0Z" fill="#470137"/>
<path fill-rule="evenodd" clip-rule="evenodd" d="M135.217 106.601H150.38L154.198 129.401H131.398L135.217 106.601Z" fill="#651252"/>
<path d="M175.799 56.2002H108.599C107.274 56.2002 106.199 57.2747 106.199 58.6002V109C106.199 110.326 107.274 111.4 108.599 111.4H175.799C177.125 111.4 178.199 110.326 178.199 109V58.6002C178.199 57.2747 177.125 56.2002 175.799 56.2002Z" fill="#751C61"/>
<path fill-rule="evenodd" clip-rule="evenodd" d="M108.599 56.2002H175.799C177.125 56.2002 178.199 57.2747 178.199 58.6002V101.8H106.199V58.6002C106.199 57.2747 107.274 56.2002 108.599 56.2002Z" fill="#833571"/>
<path d="M143.503 70.072L137.419 80.1168L143.909 90.7703C143.949 90.8515 143.97 90.9327 143.949 91.0138C143.929 91.095 143.848 91.0341 143.726 91.0544H139.082C138.758 91.0544 138.535 91.0341 138.393 90.8312C137.967 89.9789 137.521 89.1469 137.095 88.2946C136.669 87.4626 136.202 86.6104 135.716 85.7378C135.229 84.8652 134.742 83.9926 134.256 83.0998H134.215C133.789 83.9723 133.323 84.8449 132.856 85.7175C132.39 86.5901 131.923 87.4626 131.477 88.3149C131.011 89.1672 130.544 90.0398 130.078 90.8718C129.997 91.0747 129.835 91.095 129.611 91.095H125.15C125.069 91.095 125.008 91.1356 125.008 91.0341C124.988 90.953 125.008 90.8718 125.049 90.8109L131.356 80.4617L125.211 70.0517C125.15 69.9705 125.13 69.8893 125.17 69.8487C125.211 69.7879 125.292 69.7676 125.373 69.7676H129.977C130.078 69.7676 130.179 69.7879 130.26 69.8082C130.342 69.8487 130.402 69.9096 130.463 69.9908C130.849 70.8634 131.295 71.736 131.761 72.6085C132.248 73.4811 132.714 74.3334 133.221 75.1857C133.708 76.038 134.154 76.8902 134.58 77.7628H134.621C135.046 76.87 135.493 75.9974 135.939 75.1451C136.385 74.2928 136.851 73.4405 137.318 72.5882C137.784 71.736 138.23 70.8634 138.677 70.0314C138.697 69.9502 138.737 69.869 138.798 69.8285C138.879 69.7879 138.96 69.7676 139.062 69.7879H143.341C143.442 69.7676 143.544 69.8285 143.564 69.9299C143.584 69.9502 143.544 70.0314 143.503 70.072Z" fill="#FF61F6"/>
<path d="M152.874 91.4816C151.374 91.5019 149.873 91.1975 148.514 90.5684C147.237 89.9799 146.182 89.0059 145.452 87.8086C144.702 86.5708 144.337 85.0286 144.337 83.1819C144.316 81.6803 144.702 80.1989 145.452 78.9002C146.223 77.5812 147.338 76.4854 148.677 75.7549C150.096 74.9635 151.8 74.5779 153.807 74.5779C153.909 74.5779 154.051 74.5779 154.233 74.5982C154.416 74.6185 154.619 74.6185 154.862 74.6388V68.2264C154.862 68.0843 154.923 68.0032 155.065 68.0032H159.182C159.283 67.9829 159.364 68.064 159.384 68.1452C159.384 68.1655 159.384 68.1858 159.384 68.1858V87.5042C159.384 87.8695 159.405 88.2754 159.425 88.7218C159.465 89.1479 159.486 89.5538 159.506 89.8988C159.506 90.0408 159.445 90.1626 159.303 90.2234C158.249 90.6699 157.133 90.9946 155.998 91.1975C154.963 91.3801 153.929 91.4816 152.874 91.4816ZM154.862 87.4231V78.4944C154.679 78.4538 154.497 78.4132 154.314 78.3929C154.091 78.3726 153.868 78.3523 153.645 78.3523C152.854 78.3523 152.063 78.5147 151.354 78.8799C150.664 79.2249 150.076 79.7322 149.63 80.3816C149.184 81.0309 148.96 81.9035 148.96 82.9587C148.94 83.669 149.062 84.3792 149.305 85.0489C149.508 85.5968 149.812 86.0838 150.218 86.4896C150.603 86.8549 151.07 87.139 151.597 87.3013C152.144 87.484 152.712 87.5651 153.28 87.5651C153.584 87.5651 153.868 87.5448 154.132 87.5245C154.395 87.5448 154.619 87.5042 154.862 87.4231Z" fill="#FF61F6"/>
<path d="M142.201 109C143.526 109 144.601 107.926 144.601 106.6C144.601 105.275 143.526 104.2 142.201 104.2C140.875 104.2 139.801 105.275 139.801 106.6C139.801 107.926 140.875 109 142.201 109Z" fill="white"/>
<path fill-rule="evenodd" clip-rule="evenodd" d="M132.266 124.48H153.272H132.266Z" stroke="#410734" stroke-width="0.6"/>
</svg>
