<?xml version="1.0" encoding="iso-8859-1"?>
<!-- Generator: Adobe Illustrator 16.0.0, SVG Export Plug-In . SVG Version: 6.00 Build 0)  -->
<!DOCTYPE svg PUBLIC "-//W3C//DTD SVG 1.1//EN" "http://www.w3.org/Graphics/SVG/1.1/DTD/svg11.dtd">
<svg version="1.1" id="Capa_1" xmlns="http://www.w3.org/2000/svg" xmlns:xlink="http://www.w3.org/1999/xlink" x="0px" y="0px"
	 width="32px" height="32px" viewBox="0 0 32 32" style="enable-background:new 0 0 32 32;" xml:space="preserve">
<g>
	<path d="M25.071,16.962c0,0,3.418-0.25,3.936-0.593c0.472-0.311,0.992-0.821,1.266-1.641c0.573-1.718,2.499-7.393-0.677-9.579
		c-2.483-1.709-8.978,4.538-11.966,9.335c0.007-0.186,0.002-0.309-0.012-0.354c-0.108-0.337-0.343-1.286-0.851-1.737
		c0.228-1.421,0.68-3.439,1.464-4.021c0.126-0.093,0.252-0.141,0.384-0.152c-0.031,0.044-0.053,0.094-0.053,0.152
		c0,0.147,0.119,0.266,0.266,0.266s0.267-0.119,0.267-0.266c0-0.143-0.112-0.256-0.255-0.263l0.001-0.001
		c-0.005-0.001-0.008,0-0.013-0.001c-0.236-0.045-0.46,0.009-0.672,0.166c-0.813,0.604-1.272,2.598-1.504,4.032
		c-0.17-0.115-0.367-0.178-0.597-0.149c-0.049,0.006-0.093,0.019-0.139,0.032c-0.252-1.681-0.841-4.052-2.173-4.281
		c-0.029-0.011-0.06-0.019-0.092-0.019c-0.007,0-0.012,0.003-0.018,0.003c-0.009,0-0.017-0.003-0.026-0.003v0.009
		c-0.125,0.021-0.223,0.125-0.223,0.257c0,0.146,0.119,0.266,0.267,0.266c0.146,0,0.266-0.119,0.266-0.266
		c0-0.028-0.008-0.052-0.016-0.077c1.126,0.398,1.654,2.588,1.891,4.156c-0.792,0.359-0.946,1.744-0.946,1.744
		s0.007,0.317,0.02,0.837C12.175,9.949,5.038,2.819,2.405,4.632c-3.175,2.187-1.249,7.861-0.677,9.579
		c0.273,0.819,0.794,1.331,1.265,1.641c0.517,0.341,3.936,0.591,3.936,0.591s-9.418-0.723-6.294,6.515
		c3.124,7.235,11.558,3.539,13.744,0.363c0.27-0.391,0.504-0.711,0.707-0.98c0.051,1.313,0.104,2.358,0.154,2.711
		c0.175,1.242,1.235,1.375,1.371-0.089c0.034-0.361,0.121-1.175,0.231-2.2c0.221,0.289,0.478,0.637,0.779,1.077
		c2.188,3.175,10.621,6.872,13.744-0.365S25.071,16.962,25.071,16.962z M3.531,13.112c-0.442,0.044-1.486-1.068-1.673-3.093
		C1.671,7.994,2.034,6.217,2.932,5.922C3.36,5.781,2.735,7.719,2.842,9.37C2.958,11.189,3.835,12.472,3.531,13.112z M3.996,11.393
		c-0.761-0.937-0.327-2.334-0.192-3.93c0.062-0.734-0.126-1.53,0.191-1.875c1.868-1.301,9.833,8.746,9.807,9.267
		c-0.666,0.324-3.681-2.208-6.355-3.332C6.042,10.934,4.757,12.331,3.996,11.393z M4.8,12.695c0.322-0.521,1.389-0.703,2.261-0.677
		c0.872,0.026,3.41,1.64,3.696,2.369c0.287,0.729-3.176,1.51-3.802,0.182S4.478,13.216,4.8,12.695z M6.464,26.647
		c-0.59,0.104-4.982-1.73-5.434-4.438c-0.451-2.707,0.921-4.421,2.101-4.906c0.562-0.231-0.995,2.375-0.689,4.587
		C2.792,25.45,6.81,25.757,6.464,26.647z M8.12,26.021c-0.876-0.025-4.215-1.123-4.781-4.052s10.214-1.524,10.464-1.084
		C15.287,23.551,8.997,26.047,8.12,26.021z M25.045,15.087c-0.626,1.329-4.088,0.547-3.802-0.182
		c0.286-0.729,2.824-2.343,3.696-2.369s1.938,0.156,2.261,0.677C27.522,13.733,25.671,13.76,25.045,15.087z M29.068,6.439
		c0.897,0.295,1.261,2.073,1.074,4.098c-0.188,2.024-1.231,3.137-1.673,3.092c-0.305-0.64,0.572-1.923,0.688-3.742
		C29.266,8.237,28.642,6.299,29.068,6.439z M28.004,6.107c0.318,0.344,0.13,1.141,0.191,1.874c0.135,1.596,0.57,2.994-0.191,3.931
		c-0.761,0.937-2.047-0.46-3.45,0.13c-2.676,1.124-5.69,3.656-6.356,3.333C18.171,14.853,26.137,4.805,28.004,6.107z M23.88,26.539
		c-0.876,0.025-7.167-2.472-5.683-5.135c0.25-0.439,11.03-1.845,10.464,1.084C28.097,25.417,24.757,26.515,23.88,26.539z
		 M30.971,22.727c-0.451,2.707-4.845,4.542-5.435,4.438c-0.346-0.892,3.671-1.196,4.022-4.757c0.306-2.211-1.251-4.818-0.689-4.587
		C30.049,18.307,31.422,20.02,30.971,22.727z"/>
</g>
<g>
</g>
<g>
</g>
<g>
</g>
<g>
</g>
<g>
</g>
<g>
</g>
<g>
</g>
<g>
</g>
<g>
</g>
<g>
</g>
<g>
</g>
<g>
</g>
<g>
</g>
<g>
</g>
<g>
</g>
</svg>
