<?xml version="1.0" encoding="iso-8859-1"?>
<!-- Generator: Adobe Illustrator 19.0.0, SVG Export Plug-In . SVG Version: 6.00 Build 0)  -->
<svg version="1.1" id="Layer_1" xmlns="http://www.w3.org/2000/svg" xmlns:xlink="http://www.w3.org/1999/xlink" x="0px" y="0px"
	 viewBox="0 0 347.466 347.466" style="enable-background:new 0 0 347.466 347.466;" xml:space="preserve">
<g id="XMLID_1096_">
	<g id="XMLID_1097_">
		<path id="XMLID_1098_" style="fill:#FFE165;" d="M267.21,141.314c0,68.733-41.85,90.279-93.476,90.279
			s-93.476-21.545-93.476-90.279S134.357,0,173.734,0C212.63,0,267.21,72.58,267.21,141.314z"/>
	</g>
	<path id="XMLID_1099_" style="fill:#5FD2DB;" d="M70.91,161.708v22.439c0,56.553,46.271,102.824,102.823,102.824l0,0
		c56.553,0,102.824-46.271,102.824-102.824v-22.439L70.91,161.708L70.91,161.708z"/>
	<path id="XMLID_1929_" style="fill:#5FD2DB;" d="M241.445,347.466v-21.362c0-37.241-30.47-67.711-67.711-67.711l0,0
		c-37.241,0-67.711,30.47-67.711,67.711v21.362H241.445z"/>
</g>
<g>
</g>
<g>
</g>
<g>
</g>
<g>
</g>
<g>
</g>
<g>
</g>
<g>
</g>
<g>
</g>
<g>
</g>
<g>
</g>
<g>
</g>
<g>
</g>
<g>
</g>
<g>
</g>
<g>
</g>
</svg>
